[img]http://imageshack.us/a/img708/4500/zombielandcover.jpg[/img]

[b][size=200][color=black]PLOT[/color][/size][/b]

[code]A shy student trying to reach his family in Ohio, and a gun-toting tough guy trying to find the Last Twinkie and a pair of sisters trying to get to an amusement park join forces to travel across a zombie-filled America.[/code]

[code]http://www.imdb.com/title/tt1156398/[/code]

[code]Zombieland [2009] DvdRip x264 AAC -V3nom

Format                           : MPEG-4
Format profile                   : Base Media / Version 2
Codec ID                         : mp42
File size                        : 318 MiB
Duration                         : 1h 26mn
Overall bit rate                 : 514 Kbps
Encoded date                     : UTC 2012-10-13 08:15:26
Tagged date                      : UTC 2012-10-13 08:43:15

Video
ID                               : 1
Format                           : AVC
Format/Info                      : Advanced Video Codec
Format profile                   : Main@L3.0
Format settings, CABAC           : Yes
Format settings, ReFrames        : 4 frames
Codec ID                         : avc1
Codec ID/Info                    : Advanced Video Coding
Duration                         : 1h 26mn
Bit rate mode                    : Variable
Bit rate                         : 400 Kbps
Width                            : 720 pixels
Height                           : 304 pixels
Display aspect ratio             : 2.35:1
Frame rate mode                  : Variable
Frame rate                       : 23.976 fps
Minimum frame rate               : 23.974 fps
Maximum frame rate               : 23.981 fps
Color space                      : YUV
Chroma subsampling               : 4:2:0
Bit depth                        : 8 bits
Scan type                        : Progressive
Bits/(Pixel*Frame)               : 0.076
Stream size                      : 246 MiB (77%)
Writing library                  : x264 core 120
Encoded date                     : UTC 2012-10-13 08:15:26
Tagged date                      : UTC 2012-10-13 08:43:11

Audio
ID                               : 2
Format                           : AAC
Format/Info                      : Advanced Audio Codec
Format profile                   : LC
Codec ID                         : 40
Duration                         : 1h 26mn
Bit rate mode                    : Variable
Bit rate                         : 112 Kbps
Maximum bit rate                 : 146 Kbps
Channel(s)                       : 2 channels
Channel positions                : Front: L R
Sampling rate                    : 48.0 KHz
Compression mode                 : Lossy
Stream size                      : 69.4 MiB (22%)
Encoded date                     : UTC 2012-10-13 08:15:26
Tagged date                      : UTC 2012-10-13 08:43:10[/code]

[b][size=200][color=black]SCREENSHOTS[/color][/size][/b]

[img]http://imageshack.us/a/img195/6364/zombieland2009dvdripx26.jpg[/img]

[img]http://kastatic.com/i2/users/133df62bbf28e62494bb17fe11078f1a.gif[/img][img]http://kastatic.com/i2/users/133df62bbf28e62494bb17fe11078f1a.gif[/img]